<?xml version="1.0" encoding="UTF-8"?>
<svg width="100px" height="100px" viewBox="0 0 100 100" version="1.1" xmlns="http://www.w3.org/2000/svg" xmlns:xlink="http://www.w3.org/1999/xlink">
  <title>store-hours</title>
  <defs>
    <linearGradient x1="18.2879192%" y1="0%" x2="91.4586509%" y2="100%" id="linearGradient-1">
      <stop stop-color="#2F1645" offset="0%"></stop>
      <stop stop-color="#513764" offset="25.361152%"></stop>
      <stop stop-color="#5B3461" offset="62.0315599%"></stop>
      <stop stop-color="#864059" offset="100%"></stop>
    </linearGradient>
  </defs>
  <g id="Icons" stroke="none" stroke-width="1" fill="none" fill-rule="evenodd">
    <g id="store-hours">
      <circle id="Oval-1" fill="url(#linearGradient-1)" fill-rule="nonzero" transform="translate(50.400002, 50.400002) scale(-1, 1) translate(-50.400002, -50.400002) " cx="50.4000015" cy="50.4000015" r="49.4000015"></circle>
      <path d="M68.6165365,39.2220052 C70.5388551,42.5067439 71.5,46.0993729 71.5,50 C71.5,53.9006271 70.5388551,57.4979219 68.6165365,60.7919922 C66.6942178,64.0860625 64.0860625,66.6942178 60.7919922,68.6165365 C57.4979219,70.5388551 53.9006271,71.5 50,71.5 C46.0993729,71.5 42.5020781,70.5388551 39.2080078,68.6165365 C35.9139375,66.6942178 33.3057822,64.0860625 31.3834635,60.7919922 C29.4611449,57.4979219 28.5,53.9006271 28.5,50 C28.5,46.0993729 29.4611449,42.5020781 31.3834635,39.2080078 C33.3057822,35.9139375 35.9139375,33.3057822 39.2080078,31.3834635 C42.5020781,29.4611449 46.0993729,28.5 50,28.5 C53.9006271,28.5 57.4979219,29.4611449 60.7919922,31.3834635 C64.0860625,33.3057822 66.6942178,35.9186033 68.6165365,39.2220052 Z M63.1855469,57.6425781 C64.5479669,55.3096672 65.2291667,52.7621666 65.2291667,50 C65.2291667,47.2378334 64.5479669,44.6903328 63.1855469,42.3574219 C61.8231269,40.0245109 59.9754891,38.1768731 57.6425781,36.8144531 C55.3096672,35.4520331 52.7621666,34.7708333 50,34.7708333 C47.2378334,34.7708333 44.6903328,35.4520331 42.3574219,36.8144531 C40.0245109,38.1768731 38.1768731,40.0245109 36.8144531,42.3574219 C35.4520331,44.6903328 34.7708333,47.2378334 34.7708333,50 C34.7708333,52.7621666 35.4520331,55.3096672 36.8144531,57.6425781 C38.1768731,59.9754891 40.0245109,61.8231269 42.3574219,63.1855469 C44.6903328,64.5479669 47.2378334,65.2291667 50,65.2291667 C52.7621666,65.2291667 55.3096672,64.5479669 57.6425781,63.1855469 C59.9754891,61.8231269 61.8231269,59.9754891 63.1855469,57.6425781 Z M53.5833333,40.1458333 L53.5833333,52.6875 C53.5833333,52.948786 53.4993498,53.1634106 53.3313802,53.3313802 C53.1634106,53.4993498 52.948786,53.5833333 52.6875,53.5833333 L43.7291667,53.5833333 C43.4678806,53.5833333 43.253256,53.4993498 43.0852865,53.3313802 C42.9173169,53.1634106 42.8333333,52.948786 42.8333333,52.6875 L42.8333333,50.8958333 C42.8333333,50.6345473 42.9173169,50.4199227 43.0852865,50.2519531 C43.253256,50.0839835 43.4678806,50 43.7291667,50 L50,50 L50,40.1458333 C50,39.8845473 50.0839835,39.6699227 50.2519531,39.5019531 C50.4199227,39.3339835 50.6345473,39.25 50.8958333,39.25 L52.6875,39.25 C52.948786,39.25 53.1634106,39.3339835 53.3313802,39.5019531 C53.4993498,39.6699227 53.5833333,39.8845473 53.5833333,40.1458333 Z" id="icon" fill="#FFFFFF"></path>
    </g>
  </g>
</svg>